<svg xmlns="http://www.w3.org/2000/svg" width="1080" height="500" viewBox="0 0 575 324">
  <defs>
    <style>
      .cls-1 {
        fill: #2699fb;
      }

      .cls-2 {
        fill: #fff;
      }
    </style>
  </defs>
  <g id="Map" transform="translate(575) rotate(90)">
    <path id="Path_231" data-name="Path 231" class="cls-1" d="M0,0H323V575H0Z"/>
    <path id="Intersection_2" data-name="Intersection 2" class="cls-2" d="M206.7,575l-8.418-23.98L182.675,555.3l-2.2,19.7h-3.5l5.5-49.321-9.519,1.166-17.484,48.089h-7.317l9.195-25.341-20.981-4.925-11.461,29.359,2.267.972h-6.347l5.7-14.582-22.794-8.749A257.189,257.189,0,0,1,92.406,575h-8.03c10.361-17.888,18.261-38.108,23.636-54.57L58.928,516.67,68.641,575H61.647l-3.108-18.6-28.168,4.8-.259,3.759L36,575H31.989l-2.331-3.953L29.4,575H25.967l.971-13.221-20.592,3.5.712,9.657H.13l-.13-1.8V462.4L6.152,441.36,0,440.837v-6.894l8.095.677,8.03-27.48L0,399.357V386.681l4.274,2.053,14.893-52.5L5.116,328.33,0,344.062V332.939l1.878-5.775L0,326.849v-3.472l2.979.482,10.037-30.85L0,287.7V283.95L14.052,289.7l18-55.218L0,237.54v-6.978l48.308-4.567-34.579-39.73c-2.363.226-8.976.891-13.729,1.317V184.2l12.628-1.241-1.3-19.378L0,165.028v-11.6l10.037-1.249L7.706,137.463c-2.823.444-5.47.862-7.706,1.209v-3.551l7.188-1.094-2.4-14.841L0,119.816v-3.478l4.209-.587L.971,95.4,0,95.5v-6.89L27.068,86,22.794,55.542C15.587,57.034,7.916,58.172,0,59.028V52.109q1.989-.214,3.95-.456L1.943,24.239,0,24v-7l1.36.166L.13.064H7.059l3.756,50.617c4.015-.648,7.9-1.3,11.656-2.139L25.967.064H29.4L25.967,47.7C36.2,45.237,45.134,41.932,52,37.46c.453-.324.971-.713,1.489-1.037L32.054.064h4.015l9.13,15.49,17.29-10.3L61.648.064h6.993l3.109,18.73A143.434,143.434,0,0,0,84.377.064h8.03Q90.949,2.787,89.3,5.509l25.968,9.009L120.9.064h6.346l18.132,7.583L148.161.064h7.317l-.583,1.685L176.07,8.3l.906-8.231h3.5l-1.1,9.268,16.577,5.185c2.267-.648,7.965-2.269,14.376-4.018L206.634,0h3.626c1.36,3.823,2.526,7.258,3.367,9.592,5.31-1.491,10.685-2.982,14.7-4.083L225.672.064h12.822l1.166,2.269L247.495.064h24.672C260.251,3.5,249.244,6.74,242.7,8.62l11.009,22.489,25.707-4.342-3.3-26.7h6.929l3.238,25.6,26.291-4.472L316.46.064H323V27.587l-1.749,9.29,1.749.515v3.552l-2.137-.632L323,44.933V61.356l-4.4-9.508-9.648,52.626a25.529,25.529,0,0,1,7.512,7.842l6.54-3.938v4.082l-4.922,2.966a26.032,26.032,0,0,1,2.072,10.046c0,.518-.064.972-.064,1.49l2.914.547v11.713l-6.281-1.178A25.164,25.164,0,0,1,299.3,150.231l-9.648,30.137L323,187.063V190.6l-15.347-3.1c-.388,2.463-1.166,7.194-2.007,12.314l17.354,2.3v3.482l-17.873-2.408c-.777,4.861-1.554,9.656-2.072,12.768L323,219.719v7.008l-21.24-3.973-7.9,36.165L323,231.668v4.781L293.342,264.1l11.85,14.517L323,268.04v7.976L309.6,284l9.972,12.12L323,294.088v4.052l-1.3.767,1.3,1.586v5.415l-16.383-20.092-34.579,20.545L323,315.529v11.7l-13.4-2.4-6.475,38.562L323,368.128v3.544l-20.463-4.91-3.821,22.878c8.548,1.614,16.828,3.228,24.284,4.657v7.008L306.811,398.2l-5.181,36.1,15.865,3.241,5.5-22.955V429.54l-2.073,8.644L323,438.6v7.058l-22.276-4.5-3.043,21.193,25.32,5v3.454l-25.837-5.083-3.691,25.924L323,496.716v7.02l-30.5-5.213-3.626,25.47L323,528.662v6.908l-14.83-2.049-3.756,24.822,15.865-4.6L323,539.136v35.8h-6.67l2.526-13.61c-8.289,2.463-22.147,6.481-36.2,10.564l.388,3.046h-6.929l-.129-1.1c-1.3.389-2.526.713-3.82,1.1H247.495l28.363-8.166,2.526-17.888-45.717,14.194L238.494,575H225.672l-13.6-27.739-10.49,2.852c1.489,4.277,5.5,15.748,8.742,24.887Zm76.346-10.37,17.678-5.12,3.95-26.313-16.837-2.333ZM4.274,537.539l1.813,24.3,51.869-8.879-3.5-20.869Zm220.816,10.11,6.022,12.249,17.29-5.444-3.238-12.573Zm-119.992.778,22.729,8.684,5.181-13.221-23.895-5.638C107.883,541.622,106.522,544.992,105.1,548.427Zm143.368-7.454,3.238,12.508,27.2-8.425,1.878-13.351Zm-62.489-15.749L183.063,551.6l27.456-7.518-10.166-20.74Zm-45.911,13.286,19.685,4.6,6.216-17.24-12.433-5.12Zm72.915-15.619,9.065,18.471,59.835-17.11,1.813-12.574-60.611-8.749Zm-101.472,8.879L136.44,537.6l14.506-19.119-13.988-23.85-14.246-.389A380.766,380.766,0,0,1,111.509,531.771ZM2.4,511.745l1.36,18.86,49.6-5.379-2.914-17.564Zm171.925,11.536,24.478-3.176-8.159-16.592a25.019,25.019,0,0,1-7.965,1.3,12.9,12.9,0,0,1-1.619-.065Zm-18.585-5.38,11.461,4.731,7.059-19.378a23.1,23.1,0,0,1-5.375-2.657Zm44.681-20.545L211.038,519,227.1,487.376l-19.685-3.37A24.969,24.969,0,0,1,200.418,497.356ZM58.345,513.106l50.769,3.889c3.043-9.657,5.245-17.694,6.54-22.943L54.913,492.3Zm94.932,2.463,12.951-17.045a22.994,22.994,0,0,1-3.044-3.111l-22.146-.648ZM2.2,508.374l47.724-4.083-2.008-12.119L.907,490.81Zm256.625-3.759,25.319,3.629,1.554-10.888-24.347-4.083ZM224.7,499.689l30.694,4.408,2.591-11.472-27.392-4.6ZM169.011,479.6a13.664,13.664,0,1,0,13.664-13.675A13.673,13.673,0,0,0,169.011,479.6Zm78.873,4.343,38.788,6.61,1.943-13.415-38.27-7.195Zm-106.912-.649,16.966.454a17.685,17.685,0,0,1-.324-4.148,27.347,27.347,0,0,1,.324-4.018l-14.375-6.935Zm-29.14-15.748-1.878,14.841,27.456.777,2.849-16.073L118.5,456.59Zm93.053.389a24.269,24.269,0,0,1,2.785,9.138l33.413,5.7,7.706-43.747ZM55.042,480.83l51.48,1.49,1.749-14L59.445,457.757ZM2.2,479.339l45.846,1.3,1.684-8.815-43.969-4.6Zm248.725-12.833,38.2,7.259,1.425-10.175-35.81-18.535Zm-220.881-.259,20.333,2.139,7.835-40.961-16.9-8.166ZM6.8,463.849l19.815,2.074,11.526-48.154-15.736-7.583ZM90.787,461l18.52,4.018,6.023-9.981-16.966-8.166Zm108.918.13a26.8,26.8,0,0,1,3.367,3.823l46.559-30.59.583-3.37-38.335-7.777ZM129.575,449.2l32.7,15.748a25.352,25.352,0,0,1,8.224-7.323l-5.375-21.453Zm-69.482,5.12,27.2,5.9,7.965-14.906-30.63-14.777Zm195.3-12.833,35.681,18.471,2.849-20.156-36.91-7.453ZM169.465,406.3l12.174,48.155h1.036a24.086,24.086,0,0,1,6.864.972l13.533-42.451-6.152-15.23Zm-62.748,31.822,18.585,9.009,23.7-8.685-4.468-16.073Zm34.255-41.284,11.2,40.312,12.109-4.407-10.3-40.9Zm-66.762,25.6,28.363,13.675,13.275-5.509L104.58,410.835Zm183.97,3.111L294.9,433l5.181-36.1-35.616-6.87ZM107.818,409.538l11.2,19.7L143.563,419l-5.828-20.934Zm106.2,7.064,37.429,7.583,6.281-35.451-32.766-6.287ZM49.668,410.575l15.995,7.712L99.076,405.52,60.287,378.883Zm137.216-46.923,17.872,44.2,20.4-63.708ZM10.62,391.78l32.831,15.814L54.2,375.383l-34.45-15.814Zm74.663-29.165L81.2,389.058l21.758,14.972,13.21-5.056L126.6,345.764c-9.26-3.241-20.009-7-29.4-10.305Zm70.583-10.435,12.822,50.811,27-8.425L176.2,346.412Zm-35.875,45.3L152.369,385.1l-8.418-33.312c-3.5-1.232-8.418-2.982-14.052-4.926Zm149.067-13.61c8.548,1.62,17.484,3.37,26.226,5.055l10.879-64.746-5.569-1.037ZM61.453,375.513,78.1,386.919l3.561-23.267-15.671-1.879Zm165.644.323c7.706,1.491,22.082,4.213,38.465,7.389l2.4-4.6L235.58,349.264Zm27.133-14.322,15.282,13.934,27.456-52.885-17.484-3.176ZM20.658,356.2,55.3,372.078l3.95-11.861L23.765,345.376Zm158.521-11.6,6.411,15.879,40.343-20.545-36.2-9.268ZM67.216,358.532l15.412,1.815L93.96,334.358c-7.188-2.528-13.275-4.666-16.771-5.9Zm169.53-12.9,14.893,13.545,24.219-40.442-28.881-5.184Zm-194.072.194,18.779,7.842,9.13-27.35-18.65-5.769Zm112.286,2.982,21.175-6.028,9.908-13.091L147.707,319.9Zm-45.524-12.7,33.414,11.731-7.9-31.3-19.038-5.7ZM25.708,338.7l13.858,5.768,18.649-50.811-18.2-5.444Zm52.517-13.546,27.975,9.787,6.411-25.146L86,301.888Zm138.188,5.185,12.109,3.111,6.152-19.119-12.757-4.277ZM35.81,234.1,6.217,324.961,20.139,332.8,48.5,232.929Zm159.038,90.8,18.261,4.666,5.569-20.545L203.2,303.832Zm-21.692-42.58-12.692,7.323,8.029,28.387,19.621,4.991,17.354-43.489ZM53.229,317.248c3.885,1.231,13.4,4.213,18.52,5.769l7.705-23.073-17.937-5.315Zm89.427-17.3,3.109,12.379,18.779,4.8-7.188-25.665Zm61.776.648,31.277,10.435,10.037-31.3-28.492-11.277Zm-101.73-.907,30.37,9.009L125.5,278.75Zm147.836,2.851,11.138,2.009,21.5-12.768c1.036-4.925,3.3-15.166,5.764-26.507l-24.607-5.833ZM68.447,249l-8.807,37.85,39.177,11.666,25.772-23.526-6.929-27.415Zm66.892,21.841,6.475,25.6,28.234-16.268c-3.367-4.537-13.21-17.628-16.254-21.712ZM287.255,289.25l14.958-8.88-10.3-12.573ZM41.9,281.6l14.44,4.277,5.633-24.24-13.21-4.213Zm114.746-25.146,16.772,22.36,33.413-2.852.647-1.62-34.19-29.1Zm61.907,8.749,28.3,11.212,6.475-20.286-27.2-9.916ZM195.561,259.7l13.275,11.277L219.909,243.1l-8.354-6.093Zm-63.525-1.815,2.4,9.4,17.225-11.6-6.022-7.582ZM265.368,256.2l24.283,5.7c3.5-15.814,7.188-32.729,8.677-39.729l-20.851-3.889ZM55.884,232.216l-6.216,21.841,13.081,4.212,6.346-27.285Zm109.371,1.75,27.651,23.461,15.865-22.489-22.406-16.2ZM148.42,246.021c1.943,2.463,4.662,5.9,6.087,7.712L170.5,242.91l-8.16-6.935Zm78.936-2.982,27,9.787L258.5,239.8c-5.44-2.722-14.894-7.648-24.607-13.221ZM119.28,206.875l11.008,43.747,30.5-21.97-8.419-28.128ZM72.721,230.661l-3.5,14.907,47.531-1.426-4.339-17.24ZM189.345,216.6l31.924,23.138,6.605-16.656c-8.095-4.8-15.865-9.916-21.175-14.518a32.52,32.52,0,0,1-2.59-2.592Zm20.139-14.906a19.9,19.9,0,0,0,1.684,1.62c11.98,10.305,38.011,24.045,49.473,29.878l7.641-23.85L237.2,177.905ZM50.833,179.72l5.375,45.562,16.059-1.556L66.18,177.451Zm109.7,24.239,6.151,20.48,15.541-11.148-6.411-16.656ZM75.7,223.4l35.033-3.305-1.684-6.74-36.327-12.7ZM14.764,163.193l1.36,20.61,32.7,37.591-7.317-61.506Zm264.849,48.414,20.009,3.759,4.662-28.517-15.735-3.176ZM167.846,166.3l17.289,44.849,14.83-10.694c-9-13.675-16.319-36.358-20.269-50.228ZM69.612,176.933l2.591,19.9,35.81,12.509-9.261-36.748Zm35.81-24.887,12.951,51.524,32.961-6.416-14.764-48.932Zm137.023,21.322,28.233,28.582,12.174-38.174-18.326-9.4Zm-87.873,10.888,4.922,16.332,15.088-7.258-9.195-23.786Zm39.889-11.018c3.173,8.49,6.864,16.851,10.879,23.008l10.814-9.333-9.584-18.341Zm15.347-6.027,9.065,17.369,13.34-11.536-11.72-9.981ZM143.5,147.444l9.843,32.729,25.19-34.219c-.259-.973-.518-1.88-.712-2.723Zm-95.125,11.6,2.072,17.24,47.465-7L93.9,153.471ZM229.428,136.88l-6.67,23.591,12.109,10.3,38.271-32.859a25.194,25.194,0,0,1-2.526-6.092Zm-44.681,5.509c1.684,6.351,4.727,16.851,8.548,27.545l26.161-10.11,6.347-22.489Zm82.563,9.592,16.577,8.49,3.562-11.018a25.643,25.643,0,0,1-10.1-6.092ZM11.138,136.944l2.331,14.777,26.1-3.176L35.94,133.121C30.824,133.9,20.4,135.519,11.138,136.944ZM46.365,147.7l46.948-5.769-1.813-6.87L42.869,132.8Zm57.955-7.129,28.751-3.5-17.354-27.868ZM281.3,125.408a13.663,13.663,0,1,0,13.663-13.675A13.672,13.672,0,0,0,281.3,125.408ZM117.985,106.354l18.844,30.267,11.074-1.362.064-33.572Zm-19.168,29.23L116.3,87.624l-32.9-11.6Zm52.646-34.414-.065,33.7,36.717-4.472-3.885-34.349ZM8.224,118.732l2.331,14.777,24.607-3.759-3.3-14.194ZM56.791,90.086l7.123,40.248,26.744,1.231L79.39,87.948Zm-23.313,2.2L42.091,129.3l18.261.843L53.294,90.41Zm156.384,23.332,1.619,14.323,20.657-2.528-2.2-14.259Zm23.7-24.11L219,126.575l23.442-2.852-5.5-35.84Zm26.809-4.148,5.569,35.905,24.477-2.982a25.208,25.208,0,0,1,7.641-13.415L266.533,83.281ZM4.4,95.077,7.641,115.3l23.377-3.111L26.55,92.938ZM187.6,95.6l1.878,16.591,19.944-2.4-2.654-17.175ZM255.33,34.349l32.831,66.885a1.517,1.517,0,0,0,.519-.13l-8.807-70.9Zm31.341-5.314,8.807,71.292c.842.064,1.619.13,2.46.194l13.923-75.7ZM119.344,99.225l29.464-4.6,12.3-44.071L140,42.58Zm33.22-5.185L170.5,91.253l8.354-33.961-14.506-5.509Zm21.564-3.305,26.938-4.213-2.785-21.776-16.254-6.157ZM28.3,70.449l2.136,15.23,47.142-4.536L72.462,61.634ZM206.181,71.68l1.748,13.74L263.3,76.8l-7.123-14.582ZM100.565,78.42l16.9,5.963,7.188-19.767L106.522,57.1Zm-18.2-6.481,14.959,5.315,6.022-21.517-28.233-11.8ZM199.705,20.674l6.023,47.571,22.664-4.278c-2.655-7.712-12.5-37.136-15.8-46.858ZM55.755,43.293c-7.836,5.056-18,8.815-29.593,11.6l1.684,12.184L71.62,58.329,65.727,35.516A75.2,75.2,0,0,1,55.755,43.293ZM215.959,16.2l15.865,47.183,22.794-4.342L231.5,11.86ZM107.494,53.728l18.326,7.648,11.592-31.887L116.3,22.165Zm57.956-5.185,32.378,12.314-2.655-21-22.082-8.036ZM71.361,29.878l2.59,9.981,30.306,12.573,8.806-31.368L85.542,11.536A134,134,0,0,1,71.361,29.878Zm69.806,9.332,21.11,8.037,8.288-18.277L174.71,15.1,152.5,8.23Zm33.154-10.629,20.4,7.389-1.943-15.231-14.764-4.6ZM46.948,18.535l9.39,15.879A86.694,86.694,0,0,0,65.921,25.6L63.137,8.879ZM118.5,15.619l21.3,7.389,4.4-12.12L123.683,2.333ZM68.641,575ZM36,575ZM283.045,574.935ZM7.059,574.935Z" transform="translate(1)"/>
  </g>
</svg>
