<svg xmlns="http://www.w3.org/2000/svg" width="404" height="404.002" viewBox="0 0 404 404.002">
  <defs>
    <style>
      .cls-1 {
        fill: #f1f9ff;
      }

      .cls-2 {
        fill: #bce0fd;
      }

      .cls-3 {
        fill: none;
      }

      .cls-4 {
        fill: #2699fb;
        fill-rule: evenodd;
      }
    </style>
  </defs>
  <g id="Group_5" data-name="Group 5" transform="translate(-129 -935.563)">
    <g id="Group_4" data-name="Group 4" transform="translate(129 936)">
      <g id="Map" transform="translate(0 -0.435)">
        <rect id="Rectangle_586" data-name="Rectangle 586" class="cls-1" width="404" height="404" rx="5"/>
        <path id="Intersection_2" data-name="Intersection 2" class="cls-2" d="M356.095,404l31.931-63.846L345.3,332.726a55.319,55.319,0,0,1-15.18,29.422L350.34,404H322.594l-13.7-28.283a53.566,53.566,0,0,1-17.288,2.857,27.89,27.89,0,0,1-3.514-.142L278.942,404h-15.96l10.352-28.855a49.773,49.773,0,0,1-11.666-5.855L235.7,404H220.015L192.376,356.15l-30.922-.858c-2.527,10.557-6.86,27.761-13.21,48.707H132.379c6.378-20.646,11.006-37.826,13.754-49.135L14.295,351.007l7.449,45.847L113.628,404H7.725L4.6,384.857l-4.6.4v-7.522l3.472-.3L0,356.145V322.09l3.051-16.214L0,305.552V297.83l4.456.476,17.007-90.265L0,197.513V132.14L12.748,93.354,0,87.413V79.026l15.138,7.044,8.573-26.137L0,49.865V33.429l28.49,12.08L43.455,0H59.363L41,56.22l33.452,4,24.6-57.272L90.787,0h22.9l11.922,4.234L126.676,0h7.681L132.64,6.8l72.526,25.852L197.049,0h25.8l8.6,34.8,45.961-13.282L293.448,0h9.6L284.017,25.513l13.915,34.992L385.5,15.23,326.9,0h60.577l3.64.95.3-.95H399a5,5,0,0,1,5,5V43.551l-15.974,50.8c4.389.862,9.775,1.911,15.974,3.116v15.468l-20.613-4.015L359.634,184.19,404,193.316v15.535l-49-10.094-26.424,83.551a59.02,59.02,0,0,1,7.309,8.427L404,245.3V254.4l-64.184,42.9a54.061,54.061,0,0,1,6.044,20.138L404,327.52v15.491l-8.384-1.43-12.791,25.708L404,370.376v7.673l-24.689-3.618L364.574,404Zm-128.3-1.718,28.111-37.562a50.313,50.313,0,0,1-6.606-6.855l-48.069-1.428Zm34.154-79.267a29.9,29.9,0,0,0,29.657,30.136c16.445,0,29.657-13.568,29.657-30.136a29.9,29.9,0,0,0-29.657-30.136C275.3,292.879,262.09,306.446,261.949,323.014Zm-60.86,8.141,36.825,1a39.487,39.487,0,0,1-.7-9.14,61.073,61.073,0,0,1,.7-8.855l-31.2-15.282Zm-63.248-34.706-4.076,32.707,59.594,1.714,6.185-35.42-47.227-23.137ZM14.576,325.728l111.74,3.285,3.794-30.85L24.134,274.883Zm77.585-43.7,40.2,8.855,13.072-22-36.825-18Zm84.191-25.994,70.979,34.706A55.3,55.3,0,0,1,265.182,274.6l-11.666-47.274ZM25.539,267.314l59.032,13,17.288-32.85L35.378,214.9ZM262.933,161.482,289.357,267.6h2.249a51.484,51.484,0,0,1,14.9,2.143l29.376-93.55-13.353-33.564Zm-136.2,70.126,40.339,19.852,51.442-19.139-9.7-35.42Zm74.353-90.979,24.316,88.836,26.284-9.712-22.349-90.122ZM56.18,197.044l61.562,30.136,28.813-12.14L122.1,171.479Zm72.947-28.422,24.316,43.419,53.269-22.567-12.65-46.131ZM2.91,170.907l34.717,17,72.526-28.136-84.191-58.7ZM300.742,67.5l38.793,97.405,44.275-140.4ZM80.214,65.218,71.359,123.49l47.226,32.992,28.673-11.14,22.63-117.257c-20.1-7.142-43.431-15.425-63.812-22.71Zm153.2-22.995L261.247,154.2l58.611-18.567L277.551,29.513Zm-77.866,99.833,70.277-27.279L207.555,41.367c-7.59-2.713-18.272-6.57-30.5-10.854ZM28.49,93.641l36.122,25.136L72.343,67.5,38.329,63.362Z"/>
      </g>
      <g id="Group_3" data-name="Group 3" transform="translate(60.532 31.81)">
        <g id="Pin_2" data-name="Pin 2">
          <rect id="Rectangle_305" data-name="Rectangle 305" class="cls-3" width="117" height="117" transform="translate(24.468 169.755)"/>
          <path id="Path_114" data-name="Path 114" class="cls-4" d="M139.356,202.324a59.231,59.231,0,0,0,59.335-59.335c0-31.787-25.429-61.454-59.335-61.454A59.231,59.231,0,0,0,80.021,140.87C80.021,172.657,107.57,202.324,139.356,202.324ZM39.758,41.273a140.853,140.853,0,0,1,199.2,199.2l-99.6,99.6-99.6-99.6C-13.219,185.372-13.219,96.369,39.758,41.273Z" transform="translate(-0.025 0.05)"/>
        </g>
      </g>
    </g>
  </g>
</svg>
