<svg xmlns="http://www.w3.org/2000/svg" width="42" height="42" viewBox="0 0 42 42">
  <g id="Group_7" data-name="Group 7" transform="translate(-129 -936.065)">
    <g id="Group_4" data-name="Group 4" transform="translate(129 936.065)">
      <g id="Map">
        <rect id="Rectangle_586" data-name="Rectangle 586" width="42" height="42" rx="5" fill="#f1f9ff"/>
        <path id="Intersection_2" data-name="Intersection 2" d="M33.536,42l-1.424-2.94a5.555,5.555,0,0,1-1.8.3,2.981,2.981,0,0,1-.365-.014L29,42H27.339l1.076-3a5.152,5.152,0,0,1-1.212-.608L24.5,42H22.872L20,37.025l-3.215-.089c-.263,1.1-.714,2.886-1.374,5.063H13.762c.663-2.146,1.144-3.932,1.43-5.108l-13.706-.4.761,4.684a5.012,5.012,0,0,1-1.995-2.6L0,37.025c0-.008,0-.017,0-.025V33.483L.317,31.8,0,31.765v-.8l.464.05,1.768-9.384L0,20.534V13.739L1.326,9.706,0,9.088V8.215l1.574.733.891-2.717L0,5.184V5A5,5,0,0,1,.209,3.564L2.962,4.731,4.51.024Q4.752,0,5,0H6.171L4.262,5.845,7.74,6.26,10.3.307,9.438,0H11.82l1.239.44.11-.44h.8l-.179.707,7.54,2.687L20.485,0h2.682l.894,3.618L28.84,2.237,30.507,0h1L29.526,2.652,30.973,6.29l9.1-4.707L33.985,0H37a5,5,0,0,1,4.983,4.581L40.339,9.809,42,10.133v1.608l-2.144-.417-2.469,7.825L42,20.1v1.616l-5.095-1.05-2.747,8.686a6.2,6.2,0,0,1,.76.876L42,25.5v.946l-6.674,4.461A5.629,5.629,0,0,1,35.956,33L42,34.049V35.66l-.872-.149L39.8,38.183l1.981.289a4.966,4.966,0,0,1-.3.753l-2.045-.3L37.946,41.91A5.023,5.023,0,0,1,37.02,42l3.319-6.636L35.9,34.591a5.753,5.753,0,0,1-1.579,3.058L36.421,42Zm-9.855-.178L26.6,37.916a5.2,5.2,0,0,1-.687-.713l-5-.148Zm3.551-8.24a3.083,3.083,0,1,0,3.083-3.133A3.109,3.109,0,0,0,27.232,33.581Zm-6.327.846,3.829.1a4.069,4.069,0,0,1-.073-.95,6.3,6.3,0,0,1,.073-.921L21.49,31.072ZM14.33,30.819l-.424,3.4,6.2.178.644-3.682-4.91-2.406ZM1.516,33.862l11.616.342L13.526,31,2.509,28.577Zm8.066-4.543,4.179.921,1.359-2.287-3.829-1.87Zm8.753-2.7,7.379,3.608a5.76,5.76,0,0,1,1.855-1.678l-1.212-4.915ZM2.655,27.79l6.137,1.351,1.8-3.415L3.678,22.341Zm24.68-11L30.082,27.82h.234a5.358,5.358,0,0,1,1.549.222l3.054-9.725L33.53,14.828Zm-14.159,7.29,4.193,2.065,5.348-1.99L21.709,20.47Zm7.729-9.458,2.528,9.236,2.732-1.01-2.324-9.369ZM5.84,20.485l6.4,3.133,3-1.262-2.542-4.529Zm7.584-2.955,2.527,4.514L21.49,19.7l-1.316-4.8ZM.3,17.768l3.609,1.767,7.54-2.925L2.7,10.508ZM31.265,7.018,35.3,17.144l4.6-14.6ZM8.339,6.781l-.921,6.058,4.91,3.43,2.981-1.158L17.662,2.92c-2.09-.743-4.515-1.6-6.634-2.361ZM24.266,4.389l2.893,11.641,6.093-1.93-4.4-11.032ZM16.171,14.768l7.306-2.836L21.578,4.3c-.789-.283-1.9-.683-3.171-1.129ZM2.962,9.735l3.755,2.613.8-5.33L3.984,6.587ZM5,42a4.978,4.978,0,0,1-2.607-.732L11.807,42Z" fill="#bce0fd"/>
      </g>
      <g id="Group_3" data-name="Group 3" transform="translate(6.3 3.085)">
        <g id="Pin_2" data-name="Pin 2">
          <rect id="Rectangle_305" data-name="Rectangle 305" width="12" height="12" transform="translate(2.7 17.915)" fill="none"/>
          <path id="Path_114" data-name="Path 114" d="M14.527,21.014A6.165,6.165,0,0,0,20.7,14.838a6.355,6.355,0,0,0-6.176-6.4,6.165,6.165,0,0,0-6.176,6.176A6.51,6.51,0,0,0,14.527,21.014ZM4.161,4.251A14.661,14.661,0,0,1,24.894,24.984L14.527,35.351,4.161,24.984A15.061,15.061,0,0,1,4.161,4.251Z" transform="translate(-0.025 0.05)" fill="#2699fb" fill-rule="evenodd"/>
        </g>
      </g>
    </g>
  </g>
</svg>
